<svg xmlns="http://www.w3.org/2000/svg" viewBox="0 0 220 200">
  <linearGradient id="a" x1="202.0158" x2="132.4334" y1="58.2214" y2="74.4565" gradientTransform="matrix(1 0 0 -1 0 221.0523)" gradientUnits="userSpaceOnUse">
    <stop offset=".121" stop-color="#00984f"/>
    <stop offset=".318" stop-color="#2ea751"/>
    <stop offset=".645" stop-color="#73be53"/>
    <stop offset=".881" stop-color="#9fcc54"/>
    <stop offset="1" stop-color="#b0d255"/>
  </linearGradient>
  <path fill="url(#a)" d="M151.8 168.5c-5 0-9.6-.7-14.1-1.8-7.3 10-16.8 18.7-27.6 24.6 9.6 5.3 20.4 8.4 32.1 8.4 44.3 0 74.5-46 78-85.3-1.6 5.3-10.6 54.1-68.4 54.1z"/>
  <linearGradient id="b" x1="175.8478" x2="175.8478" y1="208.5217" y2="51.4676" gradientTransform="matrix(1 0 0 -1 0 221.0523)" gradientUnits="userSpaceOnUse">
    <stop offset="0" stop-color="#07a84d"/>
    <stop offset=".129" stop-color="#36b44f"/>
    <stop offset=".269" stop-color="#61be51"/>
    <stop offset=".405" stop-color="#83c753"/>
    <stop offset=".533" stop-color="#9ccd54"/>
    <stop offset=".65" stop-color="#abd155"/>
    <stop offset=".747" stop-color="#b0d255"/>
  </linearGradient>
  <path fill="url(#b)" d="M162.9 46.1c-21.3 0-31.5 12.3-31.5 12.3 22.1 2.2 49 17.7 49 49.8 0 31.3-20.4 45.3-37.2 50.1-1.6 2.8-3.4 5.7-5.4 8.3 4.5 1.1 9.2 1.8 14.1 1.8 57.8 0 66.9-48.7 68.2-53.9.3-2.6.4-5.3.4-7.7-.1-43.9-33.7-60.7-57.6-60.7z"/>
  <linearGradient id="c" x1="49.6814" x2="49.6814" y1="208.5217" y2="51.4676" gradientTransform="matrix(1 0 0 -1 0 221.0523)" gradientUnits="userSpaceOnUse">
    <stop offset="0" stop-color="#07a84d"/>
    <stop offset=".129" stop-color="#36b44f"/>
    <stop offset=".269" stop-color="#61be51"/>
    <stop offset=".405" stop-color="#83c753"/>
    <stop offset=".533" stop-color="#9ccd54"/>
    <stop offset=".65" stop-color="#abd155"/>
    <stop offset=".747" stop-color="#b0d255"/>
  </linearGradient>
  <path fill="url(#c)" d="M68.2 168.5c12.3 0 23-3.8 31.5-9.7-3 .9-6.5 1.6-10.2 1.6-16.2 0-49.8-12-49.8-52 0-32.1 27.1-47.7 49-49.8 0 0-10.3-12.3-31.5-12.3C33.2 46.2-.4 63-.4 107c0 2.6.1 5.1.4 7.7 1.4 5 10.3 53.8 68.2 53.8z"/>
  <linearGradient id="d" x1="88.2623" x2="88.2623" y1="135.2275" y2="58.7249" gradientTransform="matrix(1 0 0 -1 0 221.0523)" gradientUnits="userSpaceOnUse">
    <stop offset=".187" stop-color="#00984f"/>
    <stop offset=".451" stop-color="#4cb152"/>
    <stop offset=".78" stop-color="#b0d255"/>
  </linearGradient>
  <path fill="url(#d)" d="M89.6 160.3c3.7 0 7.2-.7 10.2-1.6 3.9-2.7 7.4-6 10.4-9.6-2-2.6-11.5-15.3-11.5-32.5 0-16 8.5-22.9 11.4-24.6-6-4.3-12.5-5.7-16.2-5.7-6.1 0-22.5 4.2-26.4 22.9-.1.8-.3 1.5-.4 2.3-.4 3.1-.7 6.5-.7 10.3 0 15 6.4 28.6 11.4 36.7 4.4 1.3 8.4 1.8 11.8 1.8z"/>
  <linearGradient id="e" x1="58.5777" x2="116.357" y1="29.4079" y2="247.3725" gradientTransform="matrix(1 0 0 -1 0 221.0523)" gradientUnits="userSpaceOnUse">
    <stop offset=".055" stop-color="#00984f"/>
    <stop offset=".093" stop-color="#159f50"/>
    <stop offset=".201" stop-color="#4cb152"/>
    <stop offset=".302" stop-color="#77bf53"/>
    <stop offset=".393" stop-color="#96c954"/>
    <stop offset=".469" stop-color="#a9d055"/>
    <stop offset=".522" stop-color="#b0d255"/>
  </linearGradient>
  <path fill="url(#e)" d="M110.3 71.5c-26.8 0-39.5 19.6-42.9 37.8 3.9-18.7 20.3-22.9 26.4-22.9 3.8 0 10.4 1.2 16.2 5.7 6.4 4.7 11.9 12.9 11.9 25.7 0 11-4.3 22.2-11.8 31.4-9.5 11.4-24.1 19.4-42 19.4-57.9 0-66.9-48.7-68.2-53.9C3.5 153.8 33.7 200 78 200c43.2 0 76.3-43.7 76.3-80.3-.1-25.6-14.5-48.2-44-48.2z"/>
  <linearGradient id="f" x1="100.5033" x2="167.2767" y1="157.9081" y2="223.8206" gradientTransform="matrix(1 0 0 -1 0 221.0523)" gradientUnits="userSpaceOnUse">
    <stop offset="0" stop-color="#5cb249"/>
    <stop offset=".524" stop-color="#8ac450"/>
    <stop offset="1" stop-color="#b0d255"/>
  </linearGradient>
  <path fill="url(#f)" d="M111.1 56.6s-9.2-8.9-9.9-21c-.4-8.8 3.1-22.2 17.1-29.8 32.6-17.5 60.9 8 57.7 24.4 0 0-24.2-11.1-46.7 2.2-16.5 9.8-18.2 24.2-18.2 24.2z"/>
</svg>
