<svg viewBox="0 0 60 45" xmlns="http://www.w3.org/2000/svg"><g fill-rule="nonzero" fill="none"><path d="M59.25 19.523a6.116 6.116 0 0 0-1.962-2.253L35.295 1.96A8.817 8.817 0 0 0 30.23.37c-1.82 0-3.57.55-5.065 1.59L3.175 17.27a6.138 6.138 0 0 0-1.965 2.253 6.17 6.17 0 0 0-.654 2.758c0 .957.228 1.912.654 2.759a6.159 6.159 0 0 0 1.965 2.254l21.99 15.311a8.822 8.822 0 0 0 5.065 1.59c1.82 0 3.573-.55 5.065-1.59l21.993-15.31a6.137 6.137 0 0 0 1.963-2.255 6.139 6.139 0 0 0 0-5.517" fill="#231F20"/><path d="M35.026 37.793c.37-.568.762-1.223 1.166-1.972.687-1.275 1.28-2.599 1.777-3.957h5.573l-8.516 5.93Zm-3.77 1.49v-7.42h4.517c-1.412 3.564-3.301 6.228-4.517 7.42Zm-2.051 0c-1.216-1.19-3.106-3.854-4.517-7.42h4.517v7.42Zm-12.286-7.42h5.571a30.58 30.58 0 0 0 1.777 3.958 28.41 28.41 0 0 0 1.166 1.97l-8.514-5.927Zm8.51-25.088c-.368.567-.76 1.22-1.162 1.965a30.348 30.348 0 0 0-1.777 3.96H16.92l8.51-5.925Zm3.776-1.496v7.42h-4.52c1.414-3.567 3.304-6.229 4.52-7.42Zm2.051.002c1.218 1.191 3.106 3.853 4.517 7.418h-4.517V5.281Zm12.286 7.418H37.97a30.098 30.098 0 0 0-1.777-3.96c-.402-.744-.794-1.4-1.164-1.966l8.514 5.926Zm12.572 6.254L34.122 3.642a6.813 6.813 0 0 0-7.783 0L4.35 18.952c-2.32 1.615-2.32 5.044 0 6.66l21.99 15.311a6.813 6.813 0 0 0 7.783 0l21.992-15.311c2.32-1.616 2.32-5.045 0-6.66Z" fill="#FFF"/><path d="M42.312 27.296H38.6l-1.672-5.74-1.673 5.74h-3.5l-2.76-10.027h3.442l1.45 5.924 1.59-5.924h3.21l1.662 6.19 1.583-6.19 3.16.002-2.779 10.025Zm-14.442-.002h-3.305l-4.91-6.25v6.25h-2.992V17.267l3.91.002 4.32 5.666.002-5.666h2.975v10.025Zm27.07-6.659-8.452-5.884H13.975L5.52 20.635c-.546.381-.859.982-.859 1.647 0 .666.313 1.267.86 1.646l8.453 5.886h32.513l8.451-5.886c.548-.38.861-.98.861-1.646a1.98 1.98 0 0 0-.86-1.647Z" fill="#E11A2C"/></g></svg>